<?xml version="1.0" standalone="no"?>
<!DOCTYPE svg PUBLIC "-//W3C//DTD SVG 20010904//EN"
 "http://www.w3.org/TR/2001/REC-SVG-20010904/DTD/svg10.dtd">
<svg version="1.0" xmlns="http://www.w3.org/2000/svg"
 width="973.000000pt" height="224.000000pt" viewBox="0 0 973.000000 224.000000"
 preserveAspectRatio="xMidYMid meet">

<g transform="translate(0.000000,224.000000) scale(0.100000,-0.100000)"
fill="#000000" stroke="none">
<path d="M1049 2162 c50 -125 46 -121 115 -152 75 -33 97 -56 146 -148 25 -48
41 -68 58 -70 16 -3 22 2 22 16 0 38 -88 283 -109 306 -30 32 -154 88 -208 94
l-44 5 20 -51z"/>
<path d="M5360 2205 c0 -4 7 -20 16 -37 9 -18 24 -55 34 -82 16 -50 19 -52 90
-81 74 -30 74 -31 115 -106 22 -42 46 -83 54 -93 18 -22 51 -21 51 2 0 23 -72
237 -93 278 -19 38 -82 80 -155 105 -53 18 -112 25 -112 14z"/>
<path d="M8230 2202 c0 -21 63 -157 79 -169 9 -7 32 -18 51 -24 62 -21 99 -57
141 -140 34 -68 43 -80 62 -77 30 4 27 28 -23 173 -47 140 -79 178 -176 215
-70 26 -134 37 -134 22z"/>
<path d="M1628 1852 l-3 -157 -100 -1 c-55 -1 -405 -2 -777 -3 l-678 -1 0 -60
0 -60 778 -2 777 -3 5 -385 c5 -423 2 -401 69 -473 95 -103 280 -98 402 10 55
50 109 126 109 152 -1 15 -155 111 -177 111 -6 0 -13 -33 -16 -74 -6 -83 -38
-168 -71 -189 -56 -37 -104 -27 -129 26 -15 31 -17 83 -17 431 l0 396 300 0
300 0 0 -308 c0 -349 4 -375 70 -463 87 -117 181 -162 331 -163 l97 -1 98 50
c54 28 101 51 106 53 4 2 8 -12 8 -30 0 -33 2 -35 94 -76 52 -23 97 -42 100
-42 3 0 6 184 6 410 l0 410 -100 0 -100 0 0 -214 c0 -244 -7 -280 -75 -381
-47 -70 -106 -110 -185 -127 -104 -21 -175 11 -225 102 l-30 55 -5 363 -5 362
978 0 977 0 0 -123 c0 -111 -2 -126 -20 -142 -20 -19 -29 -85 -11 -85 6 0 45
14 88 30 146 57 332 78 406 46 56 -23 87 -63 87 -112 l0 -42 -57 20 c-206 72
-488 -13 -594 -180 -58 -92 -48 -167 35 -248 122 -119 339 -136 535 -44 72 34
81 36 81 14 0 -13 54 -43 139 -75 l24 -10 -6 293 c-6 318 -15 382 -60 442 -58
75 -188 108 -344 87 -54 -8 -115 -16 -135 -18 l-38 -5 0 76 0 76 1495 0 1495
0 0 -81 c0 -72 -2 -80 -17 -75 -116 34 -157 40 -258 40 -92 -1 -124 -5 -193
-28 -92 -30 -155 -77 -179 -133 -19 -47 -16 -140 7 -190 25 -57 102 -137 153
-162 80 -38 120 -37 296 8 242 61 321 54 321 -30 0 -81 -180 -157 -349 -147
-64 4 -94 13 -192 56 -130 58 -165 63 -206 28 -23 -20 -28 -32 -27 -66 3 -84
100 -141 273 -161 97 -11 93 -8 161 -120 66 -110 131 -148 231 -134 82 11 84
19 33 105 l-44 75 -55 6 c-38 4 -66 15 -91 34 l-37 28 59 17 c91 25 148 54
200 102 57 52 83 107 84 171 0 88 -48 154 -145 199 -42 19 -66 23 -150 23 -91
-1 -111 -5 -220 -43 -66 -23 -137 -42 -157 -42 -50 0 -78 28 -78 78 0 80 114
139 306 157 82 8 219 -13 326 -49 37 -12 70 -20 73 -18 3 3 5 83 5 179 l0 173
935 0 935 0 0 60 0 60 -512 0 c-282 0 -2050 1 -3928 3 l-3415 2 -5 102 -5 102
-40 29 c-23 16 -60 41 -83 56 l-41 26 -3 -158z m3353 -811 c52 -16 104 -53
107 -78 7 -48 -167 -157 -303 -188 -99 -24 -243 -18 -282 11 -42 32 -41 62 6
122 86 109 191 154 341 148 52 -2 111 -9 131 -15z"/>
<path d="M6363 1441 c-68 -32 -126 -76 -223 -168 l-90 -85 0 116 0 116 -75 0
-75 0 0 -650 0 -650 70 -35 c38 -19 72 -35 75 -35 3 0 5 182 5 405 0 223 3
405 8 405 4 0 39 -28 77 -61 90 -79 173 -134 237 -155 41 -13 60 -14 103 -6
128 26 264 131 321 247 25 53 29 71 29 150 0 82 -3 96 -34 159 -43 87 -142
193 -215 230 -74 37 -156 44 -213 17z m279 -129 c16 -9 43 -37 59 -61 59 -90
32 -203 -78 -322 -39 -41 -77 -70 -129 -96 -66 -32 -84 -36 -152 -37 -92 -1
-165 27 -212 81 -55 63 -31 142 79 253 177 178 330 243 433 182z"/>
<path d="M9105 1447 c-61 -21 -116 -51 -173 -96 -28 -23 -54 -41 -57 -41 -3 0
-5 25 -5 55 l0 55 -85 0 -85 0 0 -365 0 -365 80 -40 80 -40 0 168 c0 135 4
184 20 246 40 157 131 285 238 334 105 48 234 29 290 -43 35 -44 44 -91 40
-199 -3 -91 -7 -110 -35 -167 -21 -41 -63 -98 -113 -151 l-80 -86 90 -56 c50
-31 94 -56 98 -56 12 0 98 120 126 176 45 91 58 157 54 273 -3 94 -7 113 -36
172 -71 147 -186 230 -330 236 -46 2 -93 -2 -117 -10z"/>
<path d="M574 1430 c-39 -10 -99 -32 -132 -49 l-61 -31 -3 33 -3 32 -90 0 -90
0 -3 -355 -2 -355 87 -45 c49 -25 91 -46 95 -48 3 -2 8 108 10 245 l3 248 29
55 c59 113 216 240 295 240 45 -1 110 -36 117 -65 14 -57 -39 -121 -126 -152
-28 -10 -50 -21 -50 -26 0 -16 124 -147 139 -147 25 0 118 78 151 125 54 79
41 156 -38 227 -50 45 -72 57 -137 74 -66 18 -105 17 -191 -6z"/>
<path d="M1172 1075 l3 -376 83 -45 82 -45 0 420 0 421 -85 0 -85 0 2 -375z"/>
<path d="M3888 1435 c-45 -11 -128 -46 -200 -83 -5 -2 -8 13 -8 33 l0 36 -92
-3 -93 -3 0 -355 0 -355 90 -47 90 -46 5 242 5 242 34 67 c59 117 209 237 296
237 17 0 48 -10 70 -23 34 -19 40 -28 43 -61 3 -34 -2 -43 -43 -82 -29 -29
-61 -48 -90 -56 -25 -7 -45 -15 -45 -18 0 -11 123 -145 137 -148 39 -10 166
113 182 176 43 159 -175 299 -381 247z"/>
<path d="M5550 791 l0 -660 -22 -15 c-28 -20 -51 -20 -88 -1 -38 20 -66 75
-81 161 -7 38 -14 71 -15 73 -5 7 -143 -104 -144 -116 0 -6 15 -31 33 -55 36
-48 120 -103 182 -119 75 -21 177 8 247 70 71 62 68 31 68 710 l0 611 -90 0
-90 0 0 -659z"/>
<path d="M8370 1076 l0 -375 77 -45 c43 -25 81 -42 86 -37 4 4 6 191 5 417
l-3 409 -82 3 -83 3 0 -375z"/>
<path d="M8000 740 c-44 -39 -44 -39 -25 -60 10 -11 34 -30 52 -41 l34 -21 54
33 c30 18 55 38 55 45 0 15 -89 84 -109 84 -9 -1 -36 -18 -61 -40z"/>
</g>
</svg>
